<?xml version="1.0" encoding="UTF-8" standalone="no"?>
<!-- Created with Inkscape (http://www.inkscape.org/) -->

<svg
   xmlns:dc="http://purl.org/dc/elements/1.1/"
   xmlns:cc="http://creativecommons.org/ns#"
   xmlns:rdf="http://www.w3.org/1999/02/22-rdf-syntax-ns#"
   xmlns:svg="http://www.w3.org/2000/svg"
   xmlns="http://www.w3.org/2000/svg"
   xmlns:xlink="http://www.w3.org/1999/xlink"
   xmlns:sodipodi="http://sodipodi.sourceforge.net/DTD/sodipodi-0.dtd"
   xmlns:inkscape="http://www.inkscape.org/namespaces/inkscape"
   width="640"
   height="640"
   viewBox="0 0 169.33333 169.33334"
   version="1.1"
   id="svg8"
   inkscape:version="0.92.1 r15371"
   sodipodi:docname="cubbit-icon.svg"
   inkscape:export-filename="icon-new.png"
   inkscape:export-xdpi="96"
   inkscape:export-ydpi="96">
  <defs
     id="defs2">
    <linearGradient
       inkscape:collect="always"
       id="linearGradient8597">
      <stop
         style="stop-color:#f0d32d;stop-opacity:1"
         offset="0"
         id="stop8593" />
      <stop
         style="stop-color:#f0d32d;stop-opacity:0"
         offset="1"
         id="stop8595" />
    </linearGradient>
    <linearGradient
       inkscape:collect="always"
       xlink:href="#linearGradient8597"
       id="linearGradient8783"
       gradientUnits="userSpaceOnUse"
       gradientTransform="translate(-89.428384,7.4835467)"
       x1="27.891426"
       y1="290.36548"
       x2="28.060947"
       y2="211.01328" />
  </defs>
  <sodipodi:namedview
     id="base"
     pagecolor="#ffffff"
     bordercolor="#666666"
     borderopacity="1.0"
     inkscape:pageopacity="0.0"
     inkscape:pageshadow="2"
     inkscape:zoom="0.70710678"
     inkscape:cx="354.4328"
     inkscape:cy="187.70257"
     inkscape:document-units="mm"
     inkscape:current-layer="layer4"
     showgrid="false"
     units="px"
     borderlayer="true"
     inkscape:window-width="1920"
     inkscape:window-height="1017"
     inkscape:window-x="-8"
     inkscape:window-y="-8"
     inkscape:window-maximized="1" />
  <metadata
     id="metadata5">
    <rdf:RDF>
      <cc:Work
         rdf:about="">
        <dc:format>image/svg+xml</dc:format>
        <dc:type
           rdf:resource="http://purl.org/dc/dcmitype/StillImage" />
        <dc:title />
      </cc:Work>
    </rdf:RDF>
  </metadata>
  <g
     inkscape:label="background"
     inkscape:groupmode="layer"
     id="layer1"
     transform="translate(0,-127.66665)"
     sodipodi:insensitive="true">
    <rect
       style="opacity:1;fill:#ffff33;fill-opacity:1;fill-rule:nonzero;stroke:none;stroke-width:1.22508025;stroke-linecap:butt;stroke-linejoin:round;stroke-miterlimit:4;stroke-dasharray:none;stroke-dashoffset:0;stroke-opacity:1"
       id="rect8761"
       width="169.33333"
       height="169.33333"
       x="0"
       y="127.66666" />
    <path
       style="opacity:1;fill:url(#linearGradient8783);fill-opacity:1;fill-rule:nonzero;stroke:none;stroke-width:0.74430066;stroke-linecap:butt;stroke-linejoin:round;stroke-miterlimit:4;stroke-dasharray:none;stroke-dashoffset:0;stroke-opacity:1"
       d="M -61.367436,218.49682 L -52.591835,298.2498 H -70.143037 Z"
       id="rect8417"
       inkscape:connector-curvature="0"
       sodipodi:nodetypes="cccc"
       inkscape:transform-center-y="39.876488"
       inkscape:tile-cx="84.748813"
       inkscape:tile-cy="171.5119"
       inkscape:tile-w="17.551202"
       inkscape:tile-h="79.752978"
       inkscape:tile-x0="75.973212"
       inkscape:tile-y0="171.5119" />
    <use
       x="0"
       y="0"
       inkscape:tiled-clone-of="#rect8417"
       xlink:href="#rect8417"
       id="use8548"
       inkscape:transform-center-x="-96.245661"
       inkscape:transform-center-y="256.35762"
       width="100%"
       height="100%"
       transform="matrix(1.5442374,0,0,1.5442374,179.14052,-125.86204)" />
    <use
       x="0"
       y="0"
       inkscape:tiled-clone-of="#rect8417"
       xlink:href="#rect8417"
       transform="matrix(-1.3373487,0.77211867,0.77211867,1.3373487,-166.40051,-33.274602)"
       id="use8550"
       inkscape:transform-center-x="-132.90306"
       inkscape:transform-center-y="251.4955"
       width="100%"
       height="100%" />
    <use
       x="0"
       y="0"
       inkscape:tiled-clone-of="#rect8417"
       xlink:href="#rect8417"
       transform="matrix(0.77211867,1.3373487,-1.3373487,0.77211867,423.96398,124.91309)"
       id="use8552"
       inkscape:transform-center-x="-39.528999"
       inkscape:transform-center-y="231.43624"
       width="100%"
       height="100%" />
    <use
       x="0"
       y="0"
       inkscape:tiled-clone-of="#rect8417"
       xlink:href="#rect8417"
       transform="matrix(0,1.5442374,1.5442374,0,-253.03631,306.31477)"
       id="use8554"
       inkscape:transform-center-x="-157.82443"
       inkscape:transform-center-y="194.77884"
       width="100%"
       height="100%" />
    <use
       x="0"
       y="0"
       inkscape:tiled-clone-of="#rect8417"
       xlink:href="#rect8417"
       transform="matrix(-0.77211867,1.3373487,-1.3373487,-0.77211867,329.19808,462.32397)"
       id="use8556"
       inkscape:transform-center-x="-39.528992"
       inkscape:transform-center-y="158.12145"
       width="100%"
       height="100%" />
    <use
       x="0"
       y="0"
       inkscape:tiled-clone-of="#rect8417"
       xlink:href="#rect8417"
       transform="matrix(1.3373487,0.77211867,0.77211867,-1.3373487,-2.2611791,551.13827)"
       id="use8558"
       inkscape:transform-center-x="-132.90306"
       inkscape:transform-center-y="138.06218"
       width="100%"
       height="100%" />
    <use
       x="0"
       y="0"
       inkscape:tiled-clone-of="#rect8417"
       xlink:href="#rect8417"
       transform="matrix(-1.5442374,0,0,-1.5442374,-10.391273,548.95974)"
       id="use8560"
       inkscape:transform-center-x="-96.245655"
       inkscape:transform-center-y="133.20005"
       width="100%"
       height="100%" />
    <use
       x="0"
       y="0"
       inkscape:tiled-clone-of="#rect8417"
       xlink:href="#rect8417"
       transform="matrix(1.3373487,-0.77211867,-0.77211867,-1.3373487,335.14975,456.37239)"
       id="use8562"
       inkscape:transform-center-x="-59.588263"
       inkscape:transform-center-y="138.06219"
       width="100%"
       height="100%" />
    <use
       x="0"
       y="0"
       inkscape:tiled-clone-of="#rect8417"
       xlink:href="#rect8417"
       transform="matrix(-0.77211867,-1.3373487,1.3373487,-0.77211867,-255.21474,298.18466)"
       id="use8564"
       inkscape:transform-center-x="-152.96231"
       inkscape:transform-center-y="158.12144"
       width="100%"
       height="100%" />
    <use
       x="0"
       y="0"
       inkscape:tiled-clone-of="#rect8417"
       xlink:href="#rect8417"
       transform="matrix(0,-1.5442374,-1.5442374,0,421.78556,116.78299)"
       id="use8566"
       inkscape:transform-center-x="-34.666869"
       inkscape:transform-center-y="194.77884"
       width="100%"
       height="100%" />
    <use
       x="0"
       y="0"
       inkscape:tiled-clone-of="#rect8417"
       xlink:href="#rect8417"
       transform="matrix(0.77211867,-1.3373487,1.3373487,0.77211867,-160.44885,-39.22625)"
       id="use8568"
       inkscape:transform-center-x="-152.96231"
       inkscape:transform-center-y="231.43624"
       width="100%"
       height="100%" />
    <use
       x="0"
       y="0"
       inkscape:tiled-clone-of="#rect8417"
       xlink:href="#rect8417"
       transform="matrix(-1.3373487,-0.77211867,-0.77211867,1.3373487,171.01041,-128.04049)"
       id="use8570"
       inkscape:transform-center-x="-59.58826"
       inkscape:transform-center-y="251.4955"
       width="100%"
       height="100%" />
  </g>
  <g
     inkscape:groupmode="layer"
     id="layer4"
     inkscape:label="outline"
     style="display:inline">
    <path
       style="display:inline;opacity:1;fill:none;fill-opacity:1;fill-rule:nonzero;stroke:#fffffb;stroke-width:22.522205;stroke-linecap:butt;stroke-linejoin:round;stroke-miterlimit:4;stroke-dasharray:none;stroke-dashoffset:0;stroke-opacity:1"
       d="M 313.54688 -83.152344 C 293.03244 -83.249999 257.19623 -49.251366 226.85156 -7.1191406 C 190.75384 43.000942 174.26586 99.725864 180.39453 146.00391 C 184.85127 171.54383 200.92464 265.84469 225.67578 327.70508 C 164.93465 351.12448 125.69634 398.64085 112.83398 451.20312 C 89.812596 545.2805 150.29958 576.19462 228.12891 585.87891 A 76.499994 102.5 0 0 0 204 660.5 A 76.499994 102.5 0 0 0 280.5 763 A 76.499994 102.5 0 0 0 357 660.5 A 76.499994 102.5 0 0 0 335.79492 589.72656 C 439.55621 586.87008 545.73761 562.53274 512.25 451.20312 C 498.3186 404.88819 466.38289 361.77094 417.0293 336.23633 A 49.523586 130.34375 12.565426 0 0 441.69531 266.26562 A 49.523586 130.34375 12.565426 0 0 448.83203 217.81836 A 95.582468 45.103378 24.49653 0 0 556.71289 233.54883 A 95.582468 45.103378 24.49653 0 0 525.06055 156.50781 A 95.582468 45.103378 24.49653 0 0 417.52344 127.41797 A 49.523586 130.34375 12.565426 0 0 345.22266 243.80664 A 49.523586 130.34375 12.565426 0 0 337.50781 313.51953 C 329.44623 312.75432 321.12412 312.35742 312.54102 312.35742 C 308.52629 312.35742 304.57058 312.45316 300.66016 312.62109 C 303.24596 271.19109 299.35308 215.56427 288.39062 156.28906 C 288.24188 155.53068 288.09211 154.77286 287.94141 154.01562 C 291.54599 144.81555 295.00829 135.50031 298.30273 126.13867 C 314.45349 78.663707 344.64593 -77.986218 315.48438 -83.035156 C 314.85521 -83.110137 314.20862 -83.149194 313.54688 -83.152344 z "
       transform="scale(0.26458333)"
       id="path8789-5-52" />
  </g>
  <g
     inkscape:groupmode="layer"
     id="layer2"
     inkscape:label="charactor"
     style="display:inline"
     sodipodi:insensitive="true">
    <path
       style="display:inline;opacity:1;fill:#6a84db;fill-opacity:1;fill-rule:nonzero;stroke:none;stroke-width:5.51593065;stroke-linecap:butt;stroke-linejoin:round;stroke-miterlimit:4;stroke-dasharray:none;stroke-dashoffset:0;stroke-opacity:1"
       d="M 315.48438,-83.035156 C 295.35099,-85.434539 258.17509,-50.61047 226.85156,-7.1191407 C 190.75384,43.000942 174.26586,99.725869 180.39453,146.00391 C 187.41975,186.26287 223.30016,397.41204 276.55469,382.95703 C 304.37672,372.8642 309.67588,271.38081 288.39062,156.28906 C 288.24186,155.53068 288.09212,154.77286 287.94141,154.01562 C 291.546,144.81554 295.00829,135.50031 298.30273,126.13867 C 314.45349,78.663699 344.64595,-77.986217 315.48438,-83.035156 Z"
       id="path8789-5"
       inkscape:connector-curvature="0"
       sodipodi:nodetypes="cscccccc"
       transform="scale(0.26458333)" />
    <path
       style="display:inline;opacity:1;fill:#ffffff;fill-opacity:0.57027031;fill-rule:nonzero;stroke:none;stroke-width:3.42808342;stroke-linecap:butt;stroke-linejoin:round;stroke-miterlimit:4;stroke-dasharray:none;stroke-dashoffset:0;stroke-opacity:1"
       d="M 276.18164,19.359375 C 265.7854,19.479804 252.47381,35.646235 240.80078,62.328125 C 216.38138,136.01174 214.25707,152.52171 217.17773,178.07031 C 217.43732,181.29596 217.81979,184.30281 218.32227,187.06836 C 219.17314,193.49037 220.12328,199.93771 221.16602,206.36523 C 233.9184,284.14846 257.28509,342.78292 273.35742,337.33008 C 289.43011,331.87692 292.12166,264.39845 279.36914,186.61328 C 277.46345,175.0659 275.27251,163.6691 272.8457,152.67969 C 277.56245,140.23146 282.61873,126.66185 285.72852,112.92773 C 297.42699,61.072655 293.15269,19.180521 276.18164,19.359375 Z"
       transform="scale(0.26458333)"
       id="path8789-5-5"
       inkscape:connector-curvature="0"
       sodipodi:nodetypes="cccccccccc" />
    <ellipse
       style="opacity:1;fill:#6a84db;fill-opacity:1;fill-rule:nonzero;stroke:none;stroke-width:1.10787606;stroke-linecap:butt;stroke-linejoin:round;stroke-miterlimit:4;stroke-dasharray:none;stroke-dashoffset:0;stroke-opacity:1"
       id="path8789"
       cx="-116.35184"
       cy="42.118629"
       rx="13.103613"
       ry="34.486595"
       transform="matrix(-0.97395648,-0.22673505,-0.21888088,0.97575159,0,0)" />
    <ellipse
       style="display:inline;opacity:1;fill:#ffffff;fill-opacity:0.57027031;fill-rule:nonzero;stroke:none;stroke-width:0.78483385;stroke-linecap:butt;stroke-linejoin:round;stroke-miterlimit:4;stroke-dasharray:none;stroke-dashoffset:0;stroke-opacity:1"
       id="path8789-5-5-4"
       cx="-119.30366"
       cy="50.399303"
       rx="8.0107212"
       ry="28.310202"
       transform="matrix(-0.98657529,-0.16330708,-0.23035025,0.97310779,0,0)" />
    <ellipse
       style="opacity:1;fill:#6a84db;fill-opacity:1;fill-rule:nonzero;stroke:none;stroke-width:2.8613894;stroke-linecap:round;stroke-linejoin:round;stroke-miterlimit:4;stroke-dasharray:none;stroke-dashoffset:0;stroke-opacity:1"
       id="path8916"
       cx="74.215622"
       cy="174.75728"
       rx="20.240623"
       ry="27.119791" />
    <path
       transform="scale(-1,1)"
       style="display:inline;opacity:1;fill:#6a84db;fill-opacity:1;fill-rule:nonzero;stroke:none;stroke-width:1.29075015;stroke-linecap:butt;stroke-linejoin:round;stroke-miterlimit:4;stroke-dasharray:none;stroke-dashoffset:0;stroke-opacity:1"
       d="M -29.853802,119.38067 C -21.65172,152.89864 -53.510804,156.11679 -82.693192,156.11679 C -111.87558,156.11679 -145.05758,151.04655 -135.53258,119.38067 C -129.68843,99.951791 -111.87558,82.644548 -82.693192,82.644547 C -53.510802,82.644547 -34.676323,99.673344 -29.853802,119.38067 Z"
       id="path8785-8"
       inkscape:connector-curvature="0"
       sodipodi:nodetypes="sssss" />
    <ellipse
       style="opacity:1;fill:#ffffff;fill-opacity:1;fill-rule:nonzero;stroke:none;stroke-width:1.4991473;stroke-linecap:butt;stroke-linejoin:round;stroke-miterlimit:4;stroke-dasharray:none;stroke-dashoffset:0;stroke-opacity:1"
       id="path8791"
       cx="-108.3756"
       cy="117.37567"
       rx="5.7847652"
       ry="13.848378"
       transform="scale(-1,1)" />
    <ellipse
       style="display:inline;opacity:1;fill:#ffffff;fill-opacity:1;fill-rule:nonzero;stroke:none;stroke-width:1.4991473;stroke-linecap:butt;stroke-linejoin:round;stroke-miterlimit:4;stroke-dasharray:none;stroke-dashoffset:0;stroke-opacity:1"
       id="path8791-6"
       cx="-73.68248"
       cy="117.20039"
       rx="5.7847657"
       ry="13.848378"
       transform="scale(-1,1)" />
    <path
       style="fill:none;fill-rule:evenodd;stroke:#fffff6;stroke-width:1.83625865;stroke-linecap:round;stroke-linejoin:round;stroke-miterlimit:4;stroke-dasharray:none;stroke-opacity:1"
       d="M 102.97984,139.57532 C 102.98664,143.13865 101.42259,145.73198 98.971783,145.73926 C 96.121743,145.74772 94.26833,138.59905 94.26833,138.59905 C 94.26833,138.59905 91.669566,145.55007 89.092057,145.73413 C 86.782381,145.89906 84.28552,143.87102 83.890911,140.04312"
       id="path8810"
       inkscape:connector-curvature="0"
       sodipodi:nodetypes="cacac" />
    <ellipse
       style="display:inline;opacity:1;fill:#6a84db;fill-opacity:1;fill-rule:nonzero;stroke:none;stroke-width:0.95559478;stroke-linecap:butt;stroke-linejoin:round;stroke-miterlimit:4;stroke-dasharray:none;stroke-dashoffset:0;stroke-opacity:1"
       id="path8789-9"
       cx="-32.7495"
       cy="118.26991"
       rx="13.834721"
       ry="24.30168"
       transform="matrix(-0.86174835,0.50733596,0.83519408,0.54995531,0,0)" />
  </g>
  <g
     inkscape:groupmode="layer"
     id="layer5"
     inkscape:label="shadow"
     style="display:inline;opacity:0.13800001"
     sodipodi:insensitive="true">
    <path
       style="display:inline;opacity:1;fill:#000000;fill-opacity:1;fill-rule:nonzero;stroke:none;stroke-width:1.17930436;stroke-linecap:butt;stroke-linejoin:round;stroke-miterlimit:4;stroke-dasharray:none;stroke-dashoffset:0;stroke-opacity:1"
       d="M 29.862044,117.95231 C 25.764644,139.74562 30.052035,155.45002 76.733449,156.0126 C 87.141053,156.13803 94.278641,155.70271 107.03696,154.36325 C 101.54059,155.4081 87.120607,154.73548 76.232251,154.07164 C 50.92993,152.52901 31.592259,149.90831 29.862044,117.95231 Z"
       id="path8785"
       inkscape:connector-curvature="0"
       sodipodi:nodetypes="cscsc" />
    <path
       style="display:inline;opacity:1;fill:#000000;fill-opacity:1;fill-rule:nonzero;stroke:none;stroke-width:1.17930436;stroke-linecap:butt;stroke-linejoin:round;stroke-miterlimit:4;stroke-dasharray:none;stroke-dashoffset:0;stroke-opacity:1"
       d="M 104.45952,42.248314 C 105.12016,49.785079 116.90342,58.481724 129.00009,61.905655 C 135.48175,63.740272 140.22544,64.005389 146.14059,62.421289 C 137.91334,62.762852 133.99375,60.938077 127.63705,58.843135 C 117.90511,55.635833 106.74664,46.951526 104.45952,42.248314 Z"
       id="path8785-6"
       inkscape:connector-curvature="0"
       sodipodi:nodetypes="cscsc" />
    <path
       style="display:inline;opacity:1;fill:#000000;fill-opacity:1;fill-rule:nonzero;stroke:none;stroke-width:1.17930436;stroke-linecap:butt;stroke-linejoin:round;stroke-miterlimit:4;stroke-dasharray:none;stroke-dashoffset:0;stroke-opacity:1"
       d="M 53.358119,65.677199 C 55.32838,73.915546 57.119488,81.104703 59.627864,86.305977 L 61.85802,85.455851 C 57.77611,79.688806 56.861315,74.075412 53.358119,65.677199 Z"
       id="path8785-6-9"
       inkscape:connector-curvature="0"
       sodipodi:nodetypes="cccc" />
    <path
       style="display:inline;opacity:1;fill:#000000;fill-opacity:1;fill-rule:nonzero;stroke:none;stroke-width:1.17930436;stroke-linecap:butt;stroke-linejoin:round;stroke-miterlimit:4;stroke-dasharray:none;stroke-dashoffset:0;stroke-opacity:1"
       d="M 90.10708,71.408789 C 89.530726,75.215365 89.173881,79.554276 89.301007,82.837321 L 91.000211,83.051503 C 90.622468,80.59175 90.336057,78.583304 90.10708,71.408789 Z"
       id="path8785-6-9-4"
       inkscape:connector-curvature="0"
       sodipodi:nodetypes="cccc" />
  </g>
  <g
     inkscape:groupmode="layer"
     id="layer3"
     inkscape:label="mask"
     style="display:inline"
     sodipodi:insensitive="true">
    <path
       style="opacity:1;fill:#ffffff;fill-opacity:1;fill-rule:nonzero;stroke:none;stroke-width:13.09606266;stroke-linecap:round;stroke-linejoin:round;stroke-miterlimit:4;stroke-dasharray:none;stroke-dashoffset:0;stroke-opacity:1"
       d="M -376,-344 V 994 H 984 V -344 Z M 320,6.4160156 A 313.58328,313.58328 0 0 1 633.58398,320 A 313.58328,313.58328 0 0 1 320,633.58398 A 313.58328,313.58328 0 0 1 6.4160156,320 A 313.58328,313.58328 0 0 1 320,6.4160156 Z"
       transform="scale(0.26458333)"
       id="rect8832"
       inkscape:connector-curvature="0" />
  </g>
</svg>
